<?xml version="1.0" encoding="UTF-8" standalone="no"?>
<!-- Created with Inkscape (http://www.inkscape.org/) -->
<svg xmlns:rdf="http://www.w3.org/1999/02/22-rdf-syntax-ns#" xmlns="http://www.w3.org/2000/svg" xmlns:cc="http://web.resource.org/cc/" xmlns:dc="http://purl.org/dc/elements/1.1/" xmlns:svg="http://www.w3.org/2000/svg" xmlns:inkscape="http://www.inkscape.org/namespaces/inkscape" xmlns:sodipodi="http://sodipodi.sourceforge.net/DTD/sodipodi-0.dtd" xmlns:ns1="http://sozi.baierouge.fr" xmlns:xlink="http://www.w3.org/1999/xlink" id="svg2" viewBox="0 0 720 720" version="1.1" inkscape:version="0.91 r13725">
  <g id="layer1" transform="translate(0 -332.36)">
    <g id="g5357" transform="translate(2.074 -18.933)">
      <path id="path5132" style="stroke:#000000;fill:#ff0000" d="m27.965 567.5c10.805-16.824 21.611-22.924 32.416-25.614l4.7255-12.822 5.8391-2.6185 83.975-101.58-7.9761 29.827 11.227-12.25-5.2974 21.881 7.3441-8.4275-6.3809 28.322 7.2538-10.534-1.836 23.958 6.6217-5.7187 0.33109 11.106 8.247 4.9361s53.541 82.901 44.757 87.616c0 0 242.7 102.68 264.99 205.06 0 0-49.813-6.9226-69.498 0.66216s-84.982 44.602-90.988 35.967c0 0-18.541-0.84275-18.541-0.84275-10.74-1.43-240.68 1.61-228.4-200.61 0 0-26.714-35.103-17.216-51.317l-31.604-17.006z"/>
      <path id="path5164" style="stroke:#000000;fill:#ffff00" d="m27.965 567.5c8.0891-15.016 20.841-21.055 32.416-25.614 0 0 61.879 50.094 29.48 46.628-32.399-3.4668-63.19-17.767-61.896-21.014z"/>
      <path id="path5166" style="stroke:#000000;fill:#000000" d="m137.39 539.85-20.618-8.0061-31.393 9.812-8.8189-16.373-4.3342 3.5215 1.3007-6.8004-8.4201 7.0619-4.7255 12.822s23.014 16.462 32.135 31.254c10.135 16.435-0.60239 16.141-35.948 9.3652 0 0-0.13556 27.293 20.217 53.318l6.7883-5.7092 2.3778 9.0596 3.4613-9.6314 4.3944 5.4478-0.44222-10.572 4.7764 2.3554s-7.1102-53.365 39.249-86.924z"/>
      <path id="path5168" style="fill:#ffffff" d="m-225.69 3.4615a22.154 21.462 0 1 1 -44.308 3e-15 22.154 21.462 0 1 1 44.308 -8e-15z" transform="matrix(.26085 0 0 .26927 180.76 538.69)"/>
      <path id="path5172" style="fill:#000000" d="m225.77 825.86 33.65 6.6517-78.557 95.712 0.63207 7.2236s14.23 7.912 25.042 5.8993l13.033 12.491s-72.41-27.81-116.33 0.18059c0 0 8.9972-12.525-8.1266-4.9361l26.885-22.417s36.859 8.4985 42.101 2.5823c5.2418-5.9162 68.143-82.228 68.143-82.228l-6.4712-21.159z"/>
      <path id="path5230" style="fill:#000000" d="m307.22 836.52s23.976 22.102 18.149 36.81c-5.8261 14.709-36.991 74.614-36.991 74.614s-2.0513 17.523-55.652 9.5411l-7.2839 9.6615-8.9995 1.535 7.9159 1.836-12.13 10.775s83.73-28.88 127.17-13.665l8.548-1.4447 10.264 8.3372-13.183-17.276s-43.689 7.9351-43.282-5.2371c0.40749-13.172 35.516-78.918 35.516-78.918s11.565-24.745-13.544-35.817c-4.6151-2.035-16.613 0.74513-16.494-0.75246z"/>
      <path id="path5260" style="stroke:#000000;stroke-width:4;fill:none" d="m27.965 567.5 57.217-3.6952"/>
      <path id="path5264" style="stroke:#000000;fill:#ff0000" d="m472.32 772.6-9.4164-16.943 38.91 6.4805-3.4342 2.497s170.72 18.746 184.46 45.565l5.0882 9.2656-22.139-0.3338-179.36-36.936-5.5609 5.782-8.551-15.378z"/>
    </g>
  </g>
  <metadata>
    <rdf:RDF>
      <cc:Work>
        <dc:format>image/svg+xml</dc:format>
        <dc:type rdf:resource="http://purl.org/dc/dcmitype/StillImage"/>
        <cc:license rdf:resource="http://creativecommons.org/licenses/publicdomain/"/>
        <dc:publisher>
          <cc:Agent rdf:about="http://openclipart.org/">
            <dc:title>Openclipart</dc:title>
          </cc:Agent>
        </dc:publisher>
        <dc:title>Cardinal remix 2</dc:title>
        <dc:date>2011-04-21T21:16:30</dc:date>
        <dc:description>This version doesn't have the feather and tail details. Everything in it is traced from the original to remake the shapes with fewer nodes. As a result, the svg file is so tiny compared to the original image and the first remix.</dc:description>
        <dc:source>https://openclipart.org/detail/133513/cardinal-remix-2-by-10binary</dc:source>
        <dc:creator>
          <cc:Agent>
            <dc:title>10binary</dc:title>
          </cc:Agent>
        </dc:creator>
        <dc:subject>
          <rdf:Bag>
            <rdf:li>2</rdf:li>
            <rdf:li>bird</rdf:li>
            <rdf:li>cardinal</rdf:li>
            <rdf:li>remix</rdf:li>
          </rdf:Bag>
        </dc:subject>
      </cc:Work>
      <cc:License rdf:about="http://creativecommons.org/licenses/publicdomain/">
        <cc:permits rdf:resource="http://creativecommons.org/ns#Reproduction"/>
        <cc:permits rdf:resource="http://creativecommons.org/ns#Distribution"/>
        <cc:permits rdf:resource="http://creativecommons.org/ns#DerivativeWorks"/>
      </cc:License>
    </rdf:RDF>
  </metadata>
</svg>
