<?xml version="1.0" encoding="UTF-8" standalone="no"?>
<!-- Created with Inkscape (http://www.inkscape.org/) -->
<svg xmlns:inkscape="http://www.inkscape.org/namespaces/inkscape" xmlns:rdf="http://www.w3.org/1999/02/22-rdf-syntax-ns#" xmlns="http://www.w3.org/2000/svg" xmlns:sodipodi="http://sodipodi.sourceforge.net/DTD/sodipodi-0.dtd" xmlns:ns1="http://sozi.baierouge.fr" xmlns:cc="http://creativecommons.org/ns#" xmlns:xlink="http://www.w3.org/1999/xlink" xmlns:dc="http://purl.org/dc/elements/1.1/" id="svg2" sodipodi:docname="Тукан 02.svg" viewBox="0 0 826.03 715.3" version="1.1" inkscape:version="0.48.0 r9654">
  <defs id="defs4">
    <linearGradient id="linearGradient3982" y2="807.91" gradientUnits="userSpaceOnUse" x2="1869.3" y1="380.61" x1="1472.1" inkscape:collect="always">
      <stop id="stop3978" style="stop-color:#f75009" offset="0"/>
      <stop id="stop3980" style="stop-color:#d60502" offset="1"/>
    </linearGradient>
    <linearGradient id="linearGradient3998" y2="612.29" gradientUnits="userSpaceOnUse" x2="1973.4" y1="495.14" x1="1903.9" inkscape:collect="always">
      <stop id="stop3994" style="stop-color:#7f7e96" offset="0"/>
      <stop id="stop3996" style="stop-color:#1d1d15" offset="1"/>
    </linearGradient>
    <linearGradient id="linearGradient4006" y2="350.56" gradientUnits="userSpaceOnUse" x2="1757.7" y1="442.7" x1="1704.4" inkscape:collect="always">
      <stop id="stop4002" style="stop-color:#fc3f08" offset="0"/>
      <stop id="stop4004" style="stop-color:#fadf1e" offset="1"/>
    </linearGradient>
    <linearGradient id="linearGradient4014" y2="363.82" gradientUnits="userSpaceOnUse" x2="1829" y1="464.83" x1="1754" inkscape:collect="always">
      <stop id="stop4010" style="stop-color:#ed790a" offset="0"/>
      <stop id="stop4012" style="stop-color:#fcfb12" offset="1"/>
    </linearGradient>
    <filter id="filter4028" inkscape:collect="always" color-interpolation-filters="sRGB">
      <feGaussianBlur id="feGaussianBlur4030" stdDeviation="5.9288932" inkscape:collect="always"/>
    </filter>
    <linearGradient id="linearGradient4040" y2="741.13" gradientUnits="userSpaceOnUse" x2="1919.9" y1="381.51" x1="1501.6" inkscape:collect="always">
      <stop id="stop4036" style="stop-color:#000000" offset="0"/>
      <stop id="stop4042" style="stop-color:#9f1c08" offset=".060363"/>
      <stop id="stop4038" style="stop-color:#f09602" offset="1"/>
    </linearGradient>
  </defs>
  <sodipodi:namedview id="base" bordercolor="#666666" inkscape:pageshadow="2" inkscape:window-y="-8" fit-margin-left="0" pagecolor="#ffffff" inkscape:window-height="1018" inkscape:window-maximized="1" inkscape:zoom="0.175" inkscape:window-x="-8" showgrid="false" borderopacity="1.0" inkscape:current-layer="layer1" inkscape:cx="781.49615" inkscape:cy="1059.6012" fit-margin-top="0" fit-margin-right="0" fit-margin-bottom="0" inkscape:window-width="1920" inkscape:pageopacity="0.0" inkscape:document-units="px"/>
  <g id="layer1" inkscape:label="Layer 1" inkscape:groupmode="layer" transform="translate(-1188.6 -217.06)">
    <path id="path4032" sodipodi:nodetypes="ccccc" style="fill:url(#linearGradient4040)" inkscape:connector-curvature="0" d="m1490.5 373.03c96.447-6.3494 464.36 314.91 380.83 433.23l0.032-31.186c-77.857-169.87-233.44-274.3-385.91-381.33z"/>
    <path id="path3092" d="m1325.7 487.36c-39.872 15.761-98.555 11.011-105 74.286-3.9906 39.181 8.68 69.994 31.429 102.14 14.845 20.98 49.92 15.247 92.857 47.143 18.374 13.649 36.972 14.297 55.441 15.474 0.1661 20.427 17.964 26.554 37.059 7.0262 17.49 4.8377 24.643 8.6905 41.786 14.643 8.5071 49.924 11.674 87.315 19.166 135.32 1.7382 11.137 5.5929 14.971 15.66 16.74 35.955 6.316 73.39 4.3113 105-4.2727 11.843-3.2162 15.894-8.433 13.063-18.152-14.772-50.711-45.973-99.637-60.746-150.35 11.728-79.453 7.6777-129.74-15.714-175.71-35.403-69.588-89.3-68.13-115-84.286-45.714 7.1429-71.971 2.9914-115 20z" sodipodi:nodetypes="sssscccsssscscs" style="fill:#14110c" inkscape:connector-curvature="0"/>
    <path id="path3206" sodipodi:nodetypes="ccccc" style="fill:#9c6b47" inkscape:connector-curvature="0" d="m1267.9 767.36 416.07 61.786-77.5 103.21-417.86-87.143z"/>
    <path id="path3094" d="m1525.7 762.36c-7.4927 11.393-9.9444 22.29-16.429 34.286-3.0799 5.6978-8.7864 9.8008-11.429 15.714-2.4763 5.5422-1.3666 12.201-3.5714 17.857-3.3269 8.5342-7.0956 15.819-12.5 23.214-3.7799 5.1725-11.106 8.5865-14.643 13.929-2.3455 3.5432-3.9142 8.4931-2.5 12.5 0.7538 2.1359 4.9737 1.0019 6.7857-0.35714 3.41-2.5575 4.935-6.9527 7.5-10.357 3.9834-5.2871 8.0952-10.476 12.143-15.714-3.0952 5.2381-6.5647 10.272-9.2857 15.714-1.2291 2.4583-0.986 5.5633-2.5 7.8571-2.5057 3.7965-6.1681 6.6876-9.2857 10-2.5969 2.7592-6.2941 4.7627-7.8571 8.2143-1.4765 3.2606-1.7077 7.2755-0.7143 10.714 0.7009 2.4262 2.8354 5.4934 5.3571 5.3571 8.5607-1.4542 7.7133-9.886 10.357-13.571 5.7657-7.4671 12.857-13.81 19.286-20.714 9.9582-9.7285 16.35-34.013 23.928-40.714 13.382-5.4338 13.857-20.539 17.857-25.357 6.0798-3.4774 11.426-2.2652 17.5-1.4286 4.9283-3.2182 2.3804-12.874 0-13.214-15.406-3.2514-16.351-0.66149-28.571 6.0714 0.3571-3.0952-0.047-6.3776 1.0714-9.2857 3.0962-8.0501 9.0389-17.611 11.429-23.214 1.4805-8.9405-7.7397-16.22-13.929-7.5z" sodipodi:nodetypes="csssssssscsssssccccccccscc" style="fill:#1a4ed8" inkscape:connector-curvature="0"/>
    <path id="path3096" d="m1270 508.08c-3.3991-86.337 16.958-141.76 48.571-188.57 27.316-40.445 64.422-73.327 95-87.857 32.477-15.432 54.738-17.477 77.857-11.429 23.143 6.0542 26.831 31.321 29.286 38.571l-93.571 284.29-142.86-8.5714z" sodipodi:nodetypes="cssscccc" style="fill:#14110c" inkscape:connector-curvature="0"/>
    <path id="path3098" d="m1269 503.34c64.3-227.03 219.62-249.81 236.88-258.09 1.5152 74.583 3.0304 149.17 4.5457 223.75-11.413 14.407-25.172 17.304-41.921 32.325 1.0201 16.268 2.8248 32.399-1.0101 51.518-11.48 57.235-65.433 85.703-112.13 71.216-83.056-25.769-98.351-78.404-86.368-120.71z" sodipodi:nodetypes="scccsss" style="fill:#e8eaef" inkscape:connector-curvature="0"/>
    <path id="path3100" d="m1483.6 406.87c-23.715-38.623-9.9652-42.416 20.708-69.195l48.487 30.305c-25.59-5.8454-3.9605-10.705-40.323 3.4055-7.1245 2.7648-0.1657 23.891 5.4724 41.041l-29.8-4.0406" sodipodi:nodetypes="cccscc" style="fill:#1d1113" inkscape:connector-curvature="0"/>
    <path id="path3102" d="m1399.3 309.39c16.901 10.324 21.16 24.866 33.84 34.345 11.462 8.5686 29.301 15.951 43.437 18.183 6.8425 1.0804 11.793-2.5745 14.142-9.0914 8.9072-24.71 8.4179-51.854 12.627-77.782-6.566-6.0609-10.132-14.914-18.94-17.425-15.685-4.471-34.795-1.7559-49.245 5.8084-12.51 6.5487-22.124 24.475-26.769 32.83-2.5872 4.6531-6.061 8.7547-9.0914 13.132z" sodipodi:nodetypes="cssscsssc" style="fill:#f8e50f" inkscape:connector-curvature="0"/>
    <path id="path3104" style="fill:#343bb4" inkscape:connector-curvature="0" d="m1454.3 276.38c-0.9109-0.004-1.8278 0.0239-2.75 0.125-14.756 1.617-25.078 16.406-23.031 33.031 2.0463 16.625 15.681 28.805 30.438 27.188 3.0119-0.33005 5.8325-1.2314 8.4063-2.5625 7.4421-6.5687 11.694-17.811 10.312-29.969-1.4036-12.356-8.2614-22.419-17.188-26.969-0.022-0.006-0.041-0.0255-0.062-0.0312-1.9869-0.52608-4.0337-0.80253-6.125-0.8125z"/>
    <path id="path3106" sodipodi:rx="17.172594" sodipodi:ry="10.859139" style="fill:#1a160f" sodipodi:type="arc" d="m256.58 306.62c0 5.9973-7.6884 10.859-17.173 10.859-9.4842 0-17.173-4.8618-17.173-10.859 0-5.9973 7.6884-10.859 17.173-10.859 9.4842 0 17.173 4.8618 17.173 10.859z" transform="matrix(.80835 .67190 -.74623 .91697 1490.6 -135.27)" sodipodi:cy="306.61707" sodipodi:cx="239.40616"/>
    <path id="path3108" sodipodi:rx="17.172594" sodipodi:ry="10.859139" style="fill:#d9dcf2" sodipodi:type="arc" d="m256.58 306.62c0 5.9973-7.6884 10.859-17.173 10.859-9.4842 0-17.173-4.8618-17.173-10.859 0-5.9973 7.6884-10.859 17.173-10.859 9.4842 0 17.173 4.8618 17.173 10.859z" transform="matrix(.27458 .25373 -.067795 .32744 1413 137.14)" sodipodi:cy="306.61707" sodipodi:cx="239.40616"/>
    <path id="path3114" sodipodi:nodetypes="csscc" style="fill:url(#linearGradient3982)" inkscape:connector-curvature="0" d="m1871 806.39c-32.4-138.98-244.3-277.03-354.6-335.64-15.449-8.205-40.385-31.721-46.946-45.992-5.4753-11.91-3.086-24.506 1.8516-49.701 313.7 120.56 439.44 401.27 399.77 431.34z"/>
    <path id="path3112" style="fill:#1d1d15" inkscape:connector-curvature="0" d="m1471.2 375.31c-4.9019 25.016-7.2371 37.57-1.7813 49.438 6.5607 14.271 31.488 37.795 46.938 46 3.8452 2.0422 7.8265 4.2058 11.906 6.4375-4.2223-9.4056-8.0438-17.597-12.062-30.406-3.3267-10.604-5.1237-34.501-9.0938-42.938-6.5046-13.822-23.89-19.019-35.844-28.531h-0.062z"/>
    <path id="path3116" style="fill:#f8d05e" inkscape:connector-curvature="0" d="m1471.3 375.09c0 0.0234-0.027 0.0391-0.031 0.0625 223.03 115.1 266.24 181.27 358.66 288.06-60.474-97.03-178.57-218.93-358.59-288.12-0.01-0.003-0.022 0.003-0.031 0z"/>
    <path id="path3118" d="m1474.6 361.67c-0.4184-8.2675 0.3746-14.761 4.1019-20.16 12.935-18.734 10.212-30.57 12.061-50.803 0.8428-9.2228-0.8604-21.807 1.9336-30.636 5.0545-15.973 6.5988-15 19.532-23.407 96.156-13.73 205.32 41.589 275.16 83.152 238.7 142.05 273.99 331.48 176.94 397.55 7.2758-21.371 9.0512-35.764 5-42.143-140.1-220.5-369.1-284.89-494.7-313.55z" sodipodi:nodetypes="cssscscsc" style="fill:url(#linearGradient4014)" inkscape:connector-curvature="0"/>
    <path id="path3120" style="fill:#fa4377" inkscape:connector-curvature="0" d="m1557 234.91c266.16 56.473 435.06 261.29 456.69 397.41 9.7822-87.483-57.23-211.88-226.31-312.5-59.176-35.214-146.58-80.303-230.38-84.906z"/>
    <path id="path3122" style="fill:url(#linearGradient4006)" inkscape:connector-curvature="0" d="m1626.8 299.88c-1.7813 2.7292-4.1421 5.1581-5.3438 8.1875-1.3439 3.3877-0.387 7.5325-2.1562 10.719-3.1212 5.6208-8.7701 9.5156-12.125 15-4.1966 6.8602-6.3316 14.83-10.375 21.781-3.2581 5.6012-8.017 10.215-11.438 15.719-2.6731 4.3008-4.3264 9.1649-6.7813 13.594-0.7624 1.3754-1.6921 2.6362-2.625 3.9062 4.065 1.2862 8.1773 2.6331 12.312 4 4.0975-4.4826 8.2813-8.9006 12.094-13.625 4.3376-5.3753 9.817-10.282 12.156-16.781 2.717-7.5485 0.7188-16.115 2.5-23.938 0.9942-4.3663 4.4329-7.8668 5.7188-12.156 1.5938-5.3165 1.6017-10.997 2.8437-16.406 0.7836-3.413 2.1458-6.6667 3.2188-10zm-36.438 12.5c-3.2084 5.1146-6.2533 10.335-9.625 15.344-4.4856 6.6628-9.0974 13.246-13.938 19.656-3.2591 4.316-8.5293 7.4052-10.344 12.5-2.0774 5.8332-0.4792 12.375-0.7187 18.562 2.5-5.3542 4.3332-11.074 7.5-16.062 3.3115-5.2169 8.2903-9.2138 11.781-14.312 3.7956-5.5437 7.3463-11.328 10-17.5 2.4958-5.805 3.5625-12.125 5.3438-18.188zm103.2 9.62c-8.6875 5.8333-18.025 10.799-26.062 17.5-6.3417 5.2871-12.012 11.479-16.781 18.219-5.4188 7.6566-9.099 16.406-13.562 24.656-4.1842 7.7334-8.2823 15.516-12.406 23.281 8.7742 3.3034 17.668 6.8241 26.625 10.531 2.7783-5.3159 5.5773-10.615 8.2813-15.969 3.4063-6.7448 7.355-13.266 10-20.344 2.1445-5.7392 1.8991-12.23 4.2812-17.875 2.5548-6.054 7.4494-10.882 10.344-16.781 3.6713-7.4829 6.1875-15.479 9.2812-23.219zm-46.062 3.2188c-1.3125 2.6146-2.0336 5.6225-3.9375 7.8438-3.1854 3.7163-8.8197 5.3056-11.062 9.6562-3.7161 7.2085-2.2825 16.387-6.0625 23.562-2.3256 4.4144-8.2261 5.8375-11.438 9.6562-5.4659 6.4997-9.697 13.94-14.469 20.969 2.8403 0.98093 5.6949 1.979 8.5625 3 2.3097-5.4017 4.2926-10.99 7.6875-15.75 3.9608-5.5534 11.628-8.1689 14.656-14.281 3.941-7.9558 1.7239-17.987 5.3438-26.094 1.6616-3.7214 7.6182-3.9706 9.6562-7.5 1.8525-3.208 0.7083-7.375 1.0625-11.062zm71.062 15.344c-2.9687 2.0312-6.3253 3.5881-8.9062 6.0938-1.4513 1.4089-1.7019 3.696-2.875 5.3438-2.06 2.8933-4.5454 5.4591-6.7813 8.2188-2.8788 3.5531-6.1529 6.8321-8.5625 10.719-1.3262 2.1392-1.129 5.0142-2.5 7.125-1.3328 2.0522-3.5833 3.3333-5.375 5 2.8646-0.83333 6.5157-0.3594 8.5938-2.5 1.9454-2.004 0.5073-5.7019 1.7812-8.1875 0.9614-1.8759 3.0833-2.875 4.625-4.3125 0.2396 2.0312 1.1083 4.0859 0.7188 6.0938-0.5889 3.0348-2.9329 5.536-3.5625 8.5625-0.5813 2.7943 1.5269 6.1511 0 8.5625-3.921 6.1923-11.056 9.7969-15.375 15.719-3.9092 5.3604-6.21 11.719-9.1875 17.656 13.964 6.201 28.06 12.94 42.219 20.25 3.5652-5.7716 7.0619-11.6 10.906-17.188 2.5921-3.7674 6.1777-6.8168 8.5625-10.719 2.889-4.7269 5.5117-9.7098 7.1562-15 1.6085-5.1744 1.5498-10.728 2.5-16.062 0.8315-4.6681 1.3862-9.4255 2.8438-13.938 1.1772-3.6442 3.381-6.8732 5-10.344 1.7147-3.6759 3.3333-7.3958 5-11.094-2.9688 2.1458-5.8584 4.4056-8.9063 6.4375-4.4558 2.9706-9.7013 4.8845-13.594 8.5625-4.9372 4.6652-8.7674 10.419-12.5 16.094-5.2143 7.9278-8.1125 17.415-14.281 24.625-3.9689 4.6388-10.229 6.6667-15.344 10-0.5938-1.5417-2.2916-3.0537-1.7813-4.625 0.971-2.9901 3.9475-4.9026 5.7188-7.5 1.8066-2.6494 3.4397-5.4172 5-8.2188 1.2964-2.328 3.1976-4.5167 3.5625-7.1562 0.3807-2.755-1.2815-5.442-1.4375-8.2188-0.2001-3.5591-0.6532-7.2743 0.375-10.688 0.8393-2.7863 3.8507-4.4828 5-7.1562 1.8579-4.3222 1.7528-9.3796 3.9062-13.562 1.7403-3.3804 5-5.7292 7.5-8.5938zm74.656 45.375c-3.9271 2.375-8.0547 4.4464-11.781 7.125-6.8852 4.9489-14.426 9.3286-20 15.719-5.2222 5.9873-7.4074 14.086-11.781 20.719-5.6763 8.6072-11.995 16.769-18.125 25.062 5.9444 3.2764 11.871 6.662 17.812 10.156 0.7334-0.88131 1.4309-1.7826 2.0937-2.7188 5.1687-7.3007 9.6647-15.056 14.625-22.5 2.6552-3.9846 6.2491-7.4169 8.2188-11.781 1.9112-4.2351 1.7031-9.1702 3.2187-13.562 2.0702-5.9993 4.4116-11.956 7.5-17.5 2.191-3.9333 5.4792-7.1458 8.2188-10.719zm27.844 22.844c-9.5208 6.0729-20.792 10.025-28.562 18.219-5.9708 6.2957-6.2016 16.375-11.062 23.562-5.4425 8.0473-12.526 14.818-19.094 22 7.4306 4.5834 14.863 9.2999 22.25 14.25 5.13-8.9912 10.868-17.709 14.688-27.312 2.8716-7.2211 1.5897-15.703 4.6562-22.844 4.3032-10.02 11.417-18.583 17.125-27.875zm18.219 16.094c-1.5417 1.7812-2.6487 4.0617-4.625 5.3438-5.2763 3.4226-12.552 3.9361-16.812 8.5625-3.2683 3.5493-2.4288 9.3444-3.9063 13.938-1.9723 6.1315-4.9357 11.955-6.4375 18.219-1.1421 4.7635-0.336 9.852-1.4375 14.625-1.0359 4.489-2.7218 8.8025-4.3437 13.125 6.2247 4.4524 12.402 9.0754 18.562 13.812 1.7171-3.8406 3.4226-7.6884 5.0625-11.562 1.1885-2.808 1.0378-6.4315 3.2187-8.5625 3.1624-3.0899 7.7282-4.3273 11.781-6.0938 3.352-1.4609 7.5565-1.233 10.375-3.5625 4.3823-3.6222 7.2215-8.8109 10.344-13.562 2.8419-4.325 5-9.0625 7.5-13.594-2.6146 3.4583-4.2536 7.9445-7.8437 10.375-4.493 3.0417-10.566 2.8323-15.375 5.3438-3.2973 1.7218-5.1894 5.5882-8.5625 7.1562-5.2616 2.4459-11.188 3.0833-16.781 4.625 1.6667-6.5417 3.8778-12.968 5-19.625 1.0316-6.1197-0.7403-12.751 1.4375-18.562 1.9319-5.155 7.369-8.2428 10.344-12.875 1.36-2.1178 1.6666-4.75 2.5-7.125zm36.781 50c-2.1354 2.9688-3.5309 6.6466-6.4062 8.9062-2.9416 2.3116-7.6029 1.769-10.375 4.2812-2.5682 2.3274-2.3531 6.695-4.625 9.3125-3.3294 3.8357-8.5084 5.7675-11.812 9.625-3.9697 4.6345-7.1183 9.915-10.375 15.094 5.4031 4.3615 10.761 8.8406 16.094 13.438 2.764-5.0382 5.6287-10.03 7.875-15.312 2.4443-5.7478 3.0842-12.181 5.7188-17.844 2.2849-4.9117 6.4616-8.7595 8.9062-13.594 2.2229-4.3959 3.3333-9.2708 5-13.906z"/>
    <path id="path3124" style="fill:#1d1d15" inkscape:connector-curvature="0" d="m1530.7 234.84c-6.2249 0.33544-12.399 0.93681-18.531 1.8125-12.933 8.4067-14.477 7.4328-19.531 23.406-2.794 8.8298-1.0948 21.433-1.9375 30.656-1.849 20.233 0.8724 32.048-12.062 50.781-3.7274 5.3983-4.5122 11.889-4.0938 20.156 6.1153 1.3954 12.541 2.9213 19.125 4.5 2.2351-0.88215 4.3694-1.8427 5.5938-3.7812 4.0205-6.3659 4.9387-18.138 6.6562-25.469 3.1746-13.55 5.8295-23.285 8-37.031 1.7595-11.143 2.9173-22.395 4.2813-33.594 0.898-7.3734 0.2041-15.061 2.5-22.125 0.963-2.9632 4.4757-4.3416 6.7812-6.4375 1.067-0.97001 2.1353-1.9234 3.2188-2.875z"/>
    <path id="path3126" d="m1544.1 234.53c-10.76-0.042-21.42 0.62324-31.938 2.125-12.933 8.4067-14.477 7.4328-19.531 23.406-0.5871 1.8551-0.9947 3.8795-1.25 6 207.41 48.87 340.79 126.63 452.38 274.66l15.1-21.72c-88.3-151.25-217.1-233.51-354.7-277.56-20.052-4.2976-40.236-6.8287-60.125-6.9062z" sodipodi:nodetypes="scsccccs" style="opacity:.77821;filter:url(#filter4028);fill:#ffffff" inkscape:connector-curvature="0"/>
    <path id="path3128" sodipodi:nodetypes="ssccccsss" style="fill:url(#linearGradient3998)" inkscape:connector-curvature="0" d="m1919.4 486.49c-26.295 2.3991-43.951 29.171-25.464 69.446 7.3493 16.012 22.693 41.879 36.156 64.25 13.677 17.174 26.776 35.488 39.188 55.031 4.0511 6.379 2.2757 20.786-5 42.156 36.922-25.134 54.702-68.124 49.406-119.56-2.4457-9.0564-5.4007-17.495-8.6875-24.031-11.837-23.54-26.428-46.03-43.938-65.719-16.927-19.033-23.411-23.237-41.661-21.571z"/>
    <path id="path3130" d="m1466.6 905.58c5.6902-4.7574 0.9394-13.428-4.1071-8.2143-17.285 17.856-15.372 24.226-14.821 32.232 4.9934-11.976 11.557-17.855 18.928-24.018z" sodipodi:nodetypes="sscs" style="fill:#0a0f0b" inkscape:connector-curvature="0"/>
    <path id="path3132" sodipodi:nodetypes="sscs" style="fill:#0a0f0b" inkscape:connector-curvature="0" d="m1469.2 875.31c4.2959-3.6781 0.7092-10.381-3.1008-6.3508-13.05 13.805-11.605 18.73-11.19 24.92 3.77-9.259 8.7255-13.804 14.291-18.569z"/>
    <path id="path3134" d="m1415.7 728.08c-16.447 11.981-25.693 27.633-43.929 42.857-2.1039 1.7564-5.3643 2.2996-6.7857 4.6429-3.165 5.218-4.2857 11.429-6.4286 17.143-4.2857 4.6429-9.2195 8.7622-12.857 13.929-4.6331 6.5804-8.3676 13.786-11.786 21.071-1.1408 2.4316-1.1905 5.2381-1.7857 7.8571-5.2381 7.619-12.951 14.034-15.714 22.857-1.3282 4.2417 1.2747 9.5997 4.6428 12.5 2.106 1.8135 6.2182 0.50518 8.2143-1.4286 2.4335-2.3575 1.8744-6.5309 3.2143-9.6429 2.3582-5.477 5.2381-10.714 7.8571-16.071 2.6191 1.6667 4.7624 4.7557 7.8572 5 2.3043 0.18192 4.3505-2.0623 5.7143-3.9286 1.0744-1.4703 0.04-3.8565 1.0714-5.3571 5.6141-8.1659 13.146-14.922 18.571-23.214 2.9781-4.5522 4.2857-10 6.4286-15 4.1667-1.3095 7.866-0.27581 12.5-3.9286 4.1497-3.271 9.5091-4.8209 14.643-6.0714 4.2858-1.044 9.0971 0.86924 13.214-0.71428 2.6035-1.0013 5.763-3.6689 5.3572-6.4286-0.4436-3.0167-4.0954-5.6138-7.1429-5.7143-8.5882-0.28313-16.778 4.1554-25.357 4.6429-2.2331 0.12688-4.0476-1.9048-6.0714-2.8571 3.5714-4.2857 7.1626-8.5551 10.714-12.857 8.9437-10.833 19.733-23.159 27.5-30 6.7765-5.9686-5.1318-12.572-9.6428-9.2857z" sodipodi:nodetypes="ssscsscsssscsssscsssssscsss" style="fill:#1a4ed8" inkscape:connector-curvature="0"/>
    <path id="path3136" d="m1325.5 893.88c-5.6954-13.74-6.0403-21.951-1.9643-29.196-0.5545-6.1508-2.7152-6.6748-7.1428-6.4286-6.0283 15.048-3.7009 31.231 9.1071 35.625z" sodipodi:nodetypes="cccc" style="fill:#0a0f0b" inkscape:connector-curvature="0"/>
    <path id="path3138" d="m1342.1 836.11c-6.5824 20.047-0.1309 23.868 4.4643 30-0.8661-8.9008-1.5144-17.506 0.8928-21.964-0.077-5.285-0.9491-5.8317-5.3571-8.0357z" sodipodi:nodetypes="cccc" style="fill:#0a0f0b" inkscape:connector-curvature="0"/>
    <path id="path3140" sodipodi:nodetypes="cssc" style="fill:#cccaab" inkscape:connector-curvature="0" d="m1453 912.58c2.0162-5.0686 4.6985-9.2631 9.0913-12.248 1.7864-1.2139 4.0991-0.30666 2.3992 1.2627-3.3311 3.0753-7.8526 7.0994-11.49 10.985z"/>
    <path id="path3142" d="m1458.7 880.35c0.7844-2.8992 1.9793-5.3617 4.1666-7.2694 0.8895-0.77582 2.1882-0.42401 1.3663 0.54087-1.6105 1.8908-3.8054 4.3751-5.5329 6.7286z" sodipodi:nodetypes="cssc" style="fill:#cccaab" inkscape:connector-curvature="0"/>
    <path id="path3144" sodipodi:nodetypes="ccc" style="fill:#cccaab" inkscape:connector-curvature="0" d="m1341.5 841.62c-2.8899 6.968-1.5595 12.674-0.1263 15.91-1.0319-4.6127-0.6504-10.162 0.1263-15.91z"/>
    <path id="path3146" sodipodi:nodetypes="ccc" style="fill:#cccaab" inkscape:connector-curvature="0" d="m1314.5 866.74c-1.9094 8.6618 0.5034 18.592 5.0893 21.875-2.2975-5.5672-4.2482-12.605-5.0893-21.875z"/>
  </g>
  <metadata>
    <rdf:RDF>
      <cc:Work>
        <dc:format>image/svg+xml</dc:format>
        <dc:type rdf:resource="http://purl.org/dc/dcmitype/StillImage"/>
        <cc:license rdf:resource="http://creativecommons.org/licenses/publicdomain/"/>
        <dc:publisher>
          <cc:Agent rdf:about="http://openclipart.org/">
            <dc:title>Openclipart</dc:title>
          </cc:Agent>
        </dc:publisher>
      </cc:Work>
      <cc:License rdf:about="http://creativecommons.org/licenses/publicdomain/">
        <cc:permits rdf:resource="http://creativecommons.org/ns#Reproduction"/>
        <cc:permits rdf:resource="http://creativecommons.org/ns#Distribution"/>
        <cc:permits rdf:resource="http://creativecommons.org/ns#DerivativeWorks"/>
      </cc:License>
    </rdf:RDF>
  </metadata>
</svg>
