<?xml version="1.0" encoding="UTF-8" ?>
<!DOCTYPE svg PUBLIC "-//W3C//DTD SVG 1.1//EN" "http://www.w3.org/Graphics/SVG/1.1/DTD/svg11.dtd">
<svg width="713pt" height="541pt" viewBox="0 0 713 541" version="1.1" xmlns="http://www.w3.org/2000/svg">
<path fill="#000000" opacity="1.00" d=" M 257.85 53.65 C 313.03 20.87 377.56 3.35 441.88 7.06 C 510.16 12.18 577.62 46.13 616.88 103.20 C 643.87 107.34 665.66 127.87 677.03 151.98 C 701.88 202.27 694.13 270.16 651.49 308.54 C 649.27 312.71 647.49 317.12 645.99 321.59 C 666.22 328.58 686.43 335.78 706.26 343.83 C 677.43 348.88 647.84 351.07 619.53 358.29 C 573.00 405.11 506.05 424.28 441.94 429.90 C 390.17 434.62 337.81 431.19 287.26 419.32 C 262.91 427.45 240.16 440.00 216.12 449.08 C 211.93 440.80 209.58 431.68 204.79 423.68 C 218.28 416.79 233.70 411.58 246.69 404.94 C 236.49 399.90 224.07 393.32 213.00 388.12 C 190.21 397.64 167.67 408.53 144.43 416.99 C 141.79 408.08 136.40 400.28 133.94 391.35 C 151.58 383.99 170.28 376.37 186.78 368.07 C 160.31 344.35 142.76 311.61 135.65 276.90 C 123.00 282.34 111.44 289.97 99.18 296.21 C 109.09 281.76 119.40 267.59 128.83 252.82 C 96.15 266.15 64.25 281.45 31.24 294.03 C 24.20 269.00 13.29 245.21 6.27 220.17 C 44.08 215.78 81.78 209.88 119.45 204.92 C 83.64 195.31 47.84 185.42 11.86 176.54 C 14.79 167.77 19.04 159.39 23.25 151.19 C 29.59 148.47 36.52 147.56 43.12 145.66 C 41.28 139.52 36.06 135.08 34.28 128.96 C 38.43 117.78 44.87 107.49 49.49 96.45 C 49.83 94.47 51.83 95.32 53.00 95.99 C 82.36 118.74 112.78 140.13 142.07 162.98 C 132.11 144.83 137.23 122.78 151.88 108.73 C 141.02 79.97 143.91 42.78 169.79 22.85 C 178.02 47.93 197.25 66.53 214.65 85.36 C 212.08 61.78 218.19 35.54 237.02 19.83 C 244.66 30.39 248.35 45.20 257.85 53.65 M 462.67 32.35 C 447.93 41.96 433.82 53.77 423.22 67.89 C 387.07 106.18 367.98 160.02 365.52 212.42 C 347.00 169.87 341.92 122.09 348.22 76.22 C 350.65 62.05 355.94 48.71 359.93 35.00 C 350.80 36.80 341.21 38.68 332.89 42.86 C 322.68 55.69 314.04 70.31 308.98 85.96 L 308.19 86.16 C 299.61 111.87 296.13 139.86 301.34 166.52 C 322.40 191.64 336.44 223.24 336.74 256.39 C 326.32 197.65 275.99 158.31 231.61 123.39 C 206.98 103.19 178.58 83.79 165.71 53.52 C 160.39 69.77 162.43 88.07 169.50 103.51 C 186.58 137.86 214.92 164.94 245.03 187.96 C 210.28 178.96 178.91 156.50 158.91 126.67 C 147.20 137.64 152.67 156.06 162.96 166.05 C 192.15 194.83 231.29 209.83 268.28 225.78 C 233.43 223.32 197.66 214.89 169.04 193.94 C 167.62 214.97 177.04 237.48 195.92 248.10 C 220.62 262.93 250.14 266.07 278.40 266.64 C 236.10 272.37 171.46 271.18 156.46 220.53 C 153.82 243.13 153.23 267.31 161.10 288.91 C 172.39 332.71 209.62 365.52 249.99 382.99 C 280.58 397.60 314.34 403.48 347.58 408.54 C 426.76 414.89 513.60 409.59 581.28 363.45 C 560.67 364.97 540.39 371.43 519.75 371.17 C 526.56 351.36 534.18 331.85 541.13 312.08 C 533.33 318.53 524.29 322.86 515.34 327.33 C 465.06 345.97 411.15 308.53 397.10 259.90 C 376.44 204.56 396.63 132.33 451.59 105.03 C 485.41 89.62 527.79 98.59 551.84 127.24 C 559.38 132.35 568.07 113.44 577.16 111.13 C 578.30 110.54 579.35 109.79 580.41 109.06 C 583.83 107.19 595.33 108.17 590.23 102.70 C 557.76 65.58 511.98 38.12 462.67 32.35 M 233.97 49.73 C 232.13 57.00 230.61 64.46 231.03 72.01 C 234.55 69.86 237.81 67.31 241.13 64.87 C 238.60 59.89 236.27 54.82 233.97 49.73 M 244.93 112.58 L 245.64 112.22 C 254.32 120.96 264.05 128.58 273.10 136.93 C 268.34 126.39 266.02 115.03 263.07 103.90 C 261.61 94.70 262.08 85.34 261.99 76.06 C 248.00 81.86 235.92 98.29 244.93 112.58 M 441.43 137.88 L 441.23 138.55 C 394.88 182.57 401.72 271.30 458.57 303.41 C 472.13 309.95 490.69 313.63 504.24 306.95 C 528.41 302.11 543.28 279.53 555.24 259.88 C 560.97 266.21 563.91 274.54 570.21 280.46 C 580.38 296.68 606.59 309.36 625.20 298.18 C 651.56 287.62 663.48 257.62 668.59 231.46 C 672.40 192.25 661.84 141.85 620.56 126.28 C 589.82 117.21 568.08 144.64 554.92 168.25 C 543.43 147.80 527.11 128.13 503.86 121.16 C 481.86 114.01 457.89 122.81 441.43 137.88 M 563.16 313.11 C 559.63 324.11 555.02 334.73 551.85 345.85 C 575.72 342.92 599.42 338.70 623.21 335.15 C 603.19 327.79 583.26 320.22 563.16 313.11 Z" />
<path fill="#fbd6db" opacity="1.00" d=" M 462.67 32.35 C 511.98 38.12 557.76 65.58 590.23 102.70 C 595.33 108.17 583.83 107.19 580.41 109.06 C 533.83 79.54 477.77 68.54 423.22 67.89 C 433.82 53.77 447.93 41.96 462.67 32.35 Z" />
<path fill="#fbd6db" opacity="1.00" d=" M 332.89 42.86 C 341.21 38.68 350.80 36.80 359.93 35.00 C 355.94 48.71 350.65 62.05 348.22 76.22 C 334.95 78.67 321.99 82.43 308.98 85.96 C 314.04 70.31 322.68 55.69 332.89 42.86 Z" />
<path fill="#efb7c0" opacity="1.00" d=" M 233.97 49.73 C 236.27 54.82 238.60 59.89 241.13 64.87 C 237.81 67.31 234.55 69.86 231.03 72.01 C 230.61 64.46 232.13 57.00 233.97 49.73 Z" />
<path fill="#efb7c0" opacity="1.00" d=" M 169.50 103.51 C 162.43 88.07 160.39 69.77 165.71 53.52 C 178.58 83.79 206.98 103.19 231.61 123.39 C 275.99 158.31 326.32 197.65 336.74 256.39 C 336.44 223.24 322.40 191.64 301.34 166.52 C 296.13 139.86 299.61 111.87 308.19 86.16 L 308.98 85.96 C 321.99 82.43 334.95 78.67 348.22 76.22 C 341.92 122.09 347.00 169.87 365.52 212.42 C 367.98 160.02 387.07 106.18 423.22 67.89 C 477.77 68.54 533.83 79.54 580.41 109.06 C 579.35 109.79 578.30 110.54 577.16 111.13 C 567.50 114.34 559.30 120.45 551.84 127.24 C 527.79 98.59 485.41 89.62 451.59 105.03 C 414.15 116.88 392.87 155.18 385.75 191.74 C 376.74 239.77 386.78 295.63 425.16 328.83 C 450.03 351.27 491.28 350.93 515.34 327.33 C 524.29 322.86 533.33 318.53 541.13 312.08 C 534.18 331.85 526.56 351.36 519.75 371.17 C 498.60 376.13 475.05 386.28 453.93 376.00 C 433.26 367.82 414.99 353.69 393.11 348.69 C 377.93 345.24 366.13 357.07 352.14 359.60 C 331.94 362.80 316.09 347.51 297.92 341.96 C 287.46 338.53 278.13 348.68 267.68 346.72 C 254.35 340.04 247.77 324.65 234.08 318.59 C 224.05 317.14 214.27 324.08 204.27 321.06 C 188.61 312.22 174.36 301.01 161.10 288.91 C 153.23 267.31 153.82 243.13 156.46 220.53 C 171.46 271.18 236.10 272.37 278.40 266.64 C 250.14 266.07 220.62 262.93 195.92 248.10 C 177.04 237.48 167.62 214.97 169.04 193.94 C 197.66 214.89 233.43 223.32 268.28 225.78 C 231.29 209.83 192.15 194.83 162.96 166.05 C 152.67 156.06 147.20 137.64 158.91 126.67 C 178.91 156.50 210.28 178.96 245.03 187.96 C 214.92 164.94 186.58 137.86 169.50 103.51 M 355.92 296.69 C 347.19 298.39 351.03 310.88 358.47 311.06 C 371.03 311.58 385.59 306.39 392.21 295.25 C 380.23 295.58 367.31 292.85 355.92 296.69 M 364.69 337.31 C 384.71 351.78 404.95 329.48 402.01 309.05 C 389.11 316.35 368.20 321.19 364.69 337.31 Z" />
<path fill="#fbd6db" opacity="1.00" d=" M 244.93 112.58 C 235.92 98.29 248.00 81.86 261.99 76.06 C 262.08 85.34 261.61 94.70 263.07 103.90 C 257.18 106.50 251.37 109.29 245.64 112.22 L 244.93 112.58 Z" />
<path fill="#efb7c0" opacity="1.00" d=" M 245.64 112.22 C 251.37 109.29 257.18 106.50 263.07 103.90 C 266.02 115.03 268.34 126.39 273.10 136.93 C 264.05 128.58 254.32 120.96 245.64 112.22 Z" />
<path fill="#db5c87" opacity="1.00" d=" M 385.75 191.74 C 392.87 155.18 414.15 116.88 451.59 105.03 C 396.63 132.33 376.44 204.56 397.10 259.90 C 411.15 308.53 465.06 345.97 515.34 327.33 C 491.28 350.93 450.03 351.27 425.16 328.83 C 386.78 295.63 376.74 239.77 385.75 191.74 Z" />
<path fill="#db5d88" opacity="1.00" d=" M 551.84 127.24 C 559.30 120.45 567.50 114.34 577.16 111.13 C 568.07 113.44 559.38 132.35 551.84 127.24 Z" />
<path fill="#ffffff" opacity="1.00" d=" M 441.43 137.88 C 457.89 122.81 481.86 114.01 503.86 121.16 C 527.11 128.13 543.43 147.80 554.92 168.25 C 568.08 144.64 589.82 117.21 620.56 126.28 C 661.84 141.85 672.40 192.25 668.59 231.46 C 663.48 257.62 651.56 287.62 625.20 298.18 C 605.98 295.89 592.49 281.06 581.00 266.95 C 576.89 271.00 573.53 275.76 570.21 280.46 C 563.91 274.54 560.97 266.21 555.24 259.88 C 543.28 279.53 528.41 302.11 504.24 306.95 C 474.77 303.50 450.16 281.36 437.94 255.08 C 419.71 218.51 422.99 174.40 441.23 138.55 L 441.43 137.88 M 514.90 190.82 C 503.59 207.39 502.88 234.72 518.75 248.48 C 535.86 254.84 543.97 230.79 541.70 217.45 C 537.15 216.86 532.61 216.33 528.06 215.84 C 531.35 210.95 536.37 207.07 538.81 201.66 C 539.16 189.92 523.52 180.23 514.90 190.82 M 633.51 189.92 C 621.51 204.55 621.03 229.45 633.27 244.02 C 648.02 249.51 651.14 227.54 651.06 217.17 C 647.25 215.62 635.04 217.32 642.86 210.88 C 654.16 204.59 645.56 184.67 633.51 189.92 Z" />
<path fill="#d0d2d3" opacity="1.00" d=" M 458.57 303.41 C 401.72 271.30 394.88 182.57 441.23 138.55 C 422.99 174.40 419.71 218.51 437.94 255.08 C 450.16 281.36 474.77 303.50 504.24 306.95 C 490.69 313.63 472.13 309.95 458.57 303.41 Z" />
<path fill="#000000" opacity="1.00" d=" M 514.90 190.82 C 523.52 180.23 539.16 189.92 538.81 201.66 C 536.37 207.07 531.35 210.95 528.06 215.84 C 532.61 216.33 537.15 216.86 541.70 217.45 C 543.97 230.79 535.86 254.84 518.75 248.48 C 502.88 234.72 503.59 207.39 514.90 190.82 Z" />
<path fill="#000000" opacity="1.00" d=" M 633.51 189.92 C 645.56 184.67 654.16 204.59 642.86 210.88 C 635.04 217.32 647.25 215.62 651.06 217.17 C 651.14 227.54 648.02 249.51 633.27 244.02 C 621.03 229.45 621.51 204.55 633.51 189.92 Z" />
<path fill="#d0d2d3" opacity="1.00" d=" M 570.21 280.46 C 573.53 275.76 576.89 271.00 581.00 266.95 C 592.49 281.06 605.98 295.89 625.20 298.18 C 606.59 309.36 580.38 296.68 570.21 280.46 Z" />
<path fill="#db5c87" opacity="1.00" d=" M 161.10 288.91 C 174.36 301.01 188.61 312.22 204.27 321.06 C 214.27 324.08 224.05 317.14 234.08 318.59 C 247.77 324.65 254.35 340.04 267.68 346.72 C 278.13 348.68 287.46 338.53 297.92 341.96 C 316.09 347.51 331.94 362.80 352.14 359.60 C 366.13 357.07 377.93 345.24 393.11 348.69 C 414.99 353.69 433.26 367.82 453.93 376.00 C 475.05 386.28 498.60 376.13 519.75 371.17 C 540.39 371.43 560.67 364.97 581.28 363.45 C 513.60 409.59 426.76 414.89 347.58 408.54 C 314.34 403.48 280.58 397.60 249.99 382.99 C 209.62 365.52 172.39 332.71 161.10 288.91 Z" />
<path fill="#000000" opacity="1.00" d=" M 355.92 296.69 C 367.31 292.85 380.23 295.58 392.21 295.25 C 385.59 306.39 371.03 311.58 358.47 311.06 C 351.03 310.88 347.19 298.39 355.92 296.69 Z" />
<path fill="#000000" opacity="1.00" d=" M 364.69 337.31 C 368.20 321.19 389.11 316.35 402.01 309.05 C 404.95 329.48 384.71 351.78 364.69 337.31 Z" />
<path fill="#f05a28" opacity="1.00" d=" M 563.16 313.11 C 583.26 320.22 603.19 327.79 623.21 335.15 C 599.42 338.70 575.72 342.92 551.85 345.85 C 555.02 334.73 559.63 324.11 563.16 313.11 Z" />
</svg>
