<?xml version="1.0" encoding="iso-8859-1"?>
<!-- Generator: Adobe Illustrator 19.0.0, SVG Export Plug-In . SVG Version: 6.00 Build 0)  -->
<svg version="1.1" id="Layer_1" xmlns="http://www.w3.org/2000/svg" xmlns:xlink="http://www.w3.org/1999/xlink" x="0px" y="0px"
	 viewBox="0 0 512 512" style="enable-background:new 0 0 512 512;" xml:space="preserve">
<rect x="293.193" y="268.702" style="fill:#E6E6E6;" width="182.899" height="55.08"/>
<g>
	<rect x="402.889" y="270.956" style="fill:#808080;" width="11.271" height="56.409"/>
	<rect x="440.838" y="270.956" style="fill:#808080;" width="11.271" height="56.409"/>
	<rect x="364.953" y="270.956" style="fill:#808080;" width="11.271" height="56.409"/>
	<rect x="327.005" y="270.956" style="fill:#808080;" width="11.271" height="56.409"/>
</g>
<path style="fill:#3BB271;" d="M311.88,289.834c-2.389,2.389-3.866,5.692-3.866,9.332c0,7.281,5.906,13.187,13.187,13.187h155.297
	c0,5.962-1.927,11.462-5.196,15.925c-4.914,6.751-12.871,11.124-21.854,11.124H282.091c2.705,0,5.308,0.451,7.732,1.296
	c9.276,3.201,15.937,12.003,15.937,22.372v7.889h-63.397c-9.569,0-18.236-3.877-24.502-10.155
	c-5.59-5.579-9.276-13.074-10.02-21.403h-98.73l-0.135-0.011c-0.733,8.34-4.418,15.824-10.008,21.414
	c-6.278,6.278-14.934,10.155-24.514,10.155H1.488v-7.889c0-13.074,10.594-23.668,23.668-23.668h39.075l-24.637-19.87
	c-3.584-2.694-6.988-5.635-10.177-8.802c-7.495-7.393-13.806-15.993-18.642-25.471c-2.615-5.128-4.801-10.527-6.503-16.117v-0.011
	C1.499,259.99,0,250.286,0,240.244c0-63.374,58.63-110.486,120.516-96.837l107.025,23.612c1.544,0.327,2.367,0.518,2.367,0.518
	L126.783,183c-9.512,1.42-17.92,6.018-24.164,12.634c-6.244,6.627-10.335,15.294-11.192,24.874h189.819l1.082,0.766
	c5.635-8.126,15.035-13.446,25.686-13.446c17.267,0,31.276,13.998,31.276,31.276h94.943c0-12.138,9.839-21.978,21.978-21.978
	c6.064,0,11.564,2.457,15.542,6.436c3.979,3.979,6.435,9.479,6.435,15.542c18.675,0,33.812,15.136,33.812,33.812v13.051H321.2
	C317.56,285.968,314.269,287.445,311.88,289.834z"/>
<g>
	<path style="fill:#2E9E5E;" d="M4.272,269.141c1.702,5.59,3.888,10.989,6.503,16.117c4.835,9.479,11.147,18.078,18.642,25.471
		c3.19,3.167,6.593,6.109,10.177,8.802l24.637,19.87h32.308l-24.637-19.87c-3.584-2.694-6.988-5.635-10.177-8.802
		c-7.495-7.393-13.806-15.993-18.642-25.471c-2.615-5.128-4.801-10.527-6.503-16.117v-0.011c-2.773-9.14-4.272-18.844-4.272-28.887
		c0-50.201,36.792-90.191,82.848-97.865C55.288,132.503,0,178.703,0,240.244c0,10.042,1.499,19.746,4.272,28.887V269.141z"/>
	<path style="fill:#2E9E5E;" d="M57.464,339.402H25.156c-13.074,0-23.668,10.594-23.668,23.668v7.889h32.308v-7.889
		C33.796,349.997,44.39,339.402,57.464,339.402z"/>
	<path style="fill:#2E9E5E;" d="M219.055,310.662l-11.349,25.641l-22.71,3.099l-76.02-0.011c0,0,6.976-12.161-8.69-26.959
		C130.885,317.278,169.949,318.146,219.055,310.662z"/>
	<path style="fill:#2E9E5E;" d="M364.919,255.741c-2.801,0-5.072-2.271-5.072-5.072v-11.564c0-2.801,2.271-5.072,5.072-5.072
		s5.072,2.271,5.072,5.072v11.564C369.991,253.47,367.721,255.741,364.919,255.741z"/>
	<path style="fill:#2E9E5E;" d="M390.278,255.741c-2.801,0-5.072-2.271-5.072-5.072v-11.564c0-2.801,2.271-5.072,5.072-5.072
		c2.801,0,5.072,2.271,5.072,5.072v11.564C395.349,253.47,393.08,255.741,390.278,255.741z"/>
	<path style="fill:#2E9E5E;" d="M415.637,255.741c-2.801,0-5.072-2.271-5.072-5.072v-11.564c0-2.801,2.271-5.072,5.072-5.072
		s5.072,2.271,5.072,5.072v11.564C420.708,253.47,418.438,255.741,415.637,255.741z"/>
	<path style="fill:#2E9E5E;" d="M234.755,252.066c-3.424,0-6.199-2.775-6.199-6.199v-25.359c0-3.424,2.775-6.199,6.199-6.199
		s6.199,2.775,6.199,6.199v25.359C240.954,249.292,238.179,252.066,234.755,252.066z"/>
	<path style="fill:#2E9E5E;" d="M137.749,252.066c-3.424,0-6.199-2.775-6.199-6.199v-25.359c0-3.424,2.775-6.199,6.199-6.199
		c3.424,0,6.199,2.775,6.199,6.199v25.359C143.948,249.292,141.173,252.066,137.749,252.066z"/>
	<path style="fill:#2E9E5E;" d="M186.258,252.066c-3.424,0-6.199-2.775-6.199-6.199v-25.359c0-3.424,2.775-6.199,6.199-6.199
		s6.199,2.775,6.199,6.199v25.359C192.456,249.292,189.682,252.066,186.258,252.066z"/>
</g>
<path style="fill:#808080;" d="M289.823,340.698l-7.732-1.296C284.796,339.402,287.4,339.853,289.823,340.698z"/>
<g>
	<path style="fill:#2E9E5E;" d="M471.302,328.278c-4.914,6.751-12.871,11.124-21.854,11.124H261.635l11.113-11.124H471.302z"/>
	<circle style="fill:#2E9E5E;" cx="457.18" cy="238.271" r="7.889"/>
</g>
<path style="fill:#666666;" d="M293.616,230.594c0,8.17,6.623,14.793,14.793,14.793s14.793-6.623,14.793-14.793"/>
<g>
</g>
<g>
</g>
<g>
</g>
<g>
</g>
<g>
</g>
<g>
</g>
<g>
</g>
<g>
</g>
<g>
</g>
<g>
</g>
<g>
</g>
<g>
</g>
<g>
</g>
<g>
</g>
<g>
</g>
</svg>
