<?xml version="1.0" encoding="iso-8859-1"?>
<!-- Generator: Adobe Illustrator 19.0.0, SVG Export Plug-In . SVG Version: 6.00 Build 0)  -->
<svg version="1.1" id="Capa_1" xmlns="http://www.w3.org/2000/svg" xmlns:xlink="http://www.w3.org/1999/xlink" x="0px" y="0px"
	 viewBox="0 0 512 512" style="enable-background:new 0 0 512 512;" xml:space="preserve">
<path style="fill:#FFDC6C;" d="M434.848,346.31c-9.76,0-17.7-7.94-17.7-17.7v-40.461c0-1.523-0.082-3.057-0.245-4.562
	c-1.882-17.434-15.583-31.905-33.321-35.198c-4.166-0.756-6.992-4.71-6.324-8.911c0.678-4.259-15.541-11.021-11.283-10.345
	l20.233,3.862c0.064,0.01,3.513,0.765,3.579,0.777c24.483,4.531,40.026,23.889,42.644,48.139c0.222,2.058,0.335,4.157,0.335,6.237
	v40.461c0,1.148,0.934,2.082,2.082,2.082c4.313,0,7.809,3.496,7.809,7.809C442.656,342.813,439.161,346.31,434.848,346.31z"/>
<path style="fill:#FFB945;" d="M377.847,378.968v124.104c0,4.931,3.997,8.928,8.928,8.928h8.443c4.931,0,8.928-3.997,8.928-8.928
	V380.464L377.847,378.968z"/>
<path style="fill:#FFDC6C;" d="M399.972,325.628v-49.753l-0.01,0.008c-0.213-27.253-22.363-49.282-49.666-49.282l0,0
	c0,0-45.011,0.123-85.654,0.15c-37.162,0.025-69.667-25.004-79.145-60.937l-34.49-130.751c-0.091-0.344-0.272-0.661-0.528-0.909
	c-12.757-12.346-33.098-12.234-45.718,0.334c-0.032,0.032-0.066,0.063-0.1,0.091L72.307,61.424
	c-0.065,0.054-0.128,0.111-0.187,0.171c-5.99,6.135-1.654,16.501,6.962,16.501h41.315l0,0c0.958,0,1.771,0.704,1.908,1.653
	l31.168,216.278c0.007,0.049,0.016,0.099,0.026,0.148c6.14,28.653,22.139,35.918,73.504,35.918h109.73
	c0.893,0,1.656,0.618,1.867,1.485c7,28.704,32.804,50.039,63.629,50.182c0.206,0.001,0.411,0.035,0.605,0.103l0.015,0.005
	c0.775,0.269,1.295,1,1.295,1.821v115.456c0,5.995,4.86,10.855,10.855,10.855h5.045c5.995,0,10.855-4.86,10.855-10.855V358.423
	c0-1.014-0.787-1.859-1.799-1.917C412.858,355.574,399.972,342.106,399.972,325.628z"/>
<g>
	<path style="fill:#FFD169;" d="M429.103,356.506c-16.245-0.932-29.131-14.4-29.131-30.879v-49.753l-0.01,0.008
		c-0.213-27.253-22.363-49.282-49.666-49.282c0,0-5.774,0.016-15.051,0.037c26.617,0.781,47.977,22.487,48.186,49.244l0.01-0.008
		v49.753c0,12.541,7.464,23.339,18.191,28.193c7.751,3.508,12.739,11.216,12.739,19.724v127.599c0,3.884-2.046,7.281-5.113,9.2
		c1.667,1.043,3.631,1.656,5.743,1.656h5.045c5.995,0,10.855-4.86,10.855-10.855v-142.72
		C430.902,357.409,430.115,356.564,429.103,356.506z"/>
	<path style="fill:#FFD169;" d="M133.949,34.154c0.255,0.247,0.437,0.565,0.528,0.908l34.489,130.751
		c9.478,35.933,41.983,60.961,79.145,60.936c5.231-0.003,10.534-0.009,15.805-0.015c-36.858-0.3-69.003-25.224-78.42-60.922
		L151.007,35.063c-0.091-0.344-0.272-0.661-0.528-0.908c-8.47-8.197-20.282-10.896-30.959-8.11
		C124.784,27.417,129.774,30.114,133.949,34.154z"/>
</g>
<path style="fill:#FFDC6C;" d="M177.85,312.983l14.059,190.089c0,4.931,3.997,8.928,8.928,8.928h9.394
	c4.931,0,8.928-3.997,8.928-8.928V312.983H177.85z"/>
<path style="fill:#FFD169;" d="M219.158,319.555c-8.157,0-14.769,6.612-14.769,14.769v168.748c0,3.994-2.623,7.374-6.24,8.514
	c0.849,0.267,1.751,0.413,2.688,0.413h9.394c4.931,0,8.928-3.997,8.928-8.928L219.158,319.555L219.158,319.555z"/>
<path style="fill:#FFB945;" d="M92.648,78.096c1.601-2.81,2.521-6.059,2.521-9.524c0-7.557-4.353-14.094-10.687-17.251L72.21,61.504
	c-6.123,6.123-1.786,16.592,6.873,16.592H92.648z"/>
<circle style="fill:#555566;" cx="118.25" cy="48.03" r="7.243"/>
<path style="fill:#FFB945;" d="M143.612,13.245c-1.25-5.537-6.483-10.212-9.341-12.578c-0.87-0.72-2.071-0.872-3.088-0.383
	c-2.333,1.123-5.523,3.172-8.51,8.347c-4.686,8.118-1.949,17.939-0.519,21.789c0.353,0.951,1.161,1.653,2.151,1.871l12.802,2.824
	c1.281,0.283,2.606-0.298,3.237-1.448C142.346,30.022,145.567,21.907,143.612,13.245z"/>
<g>
	<path style="fill:#D17461;" d="M150.177,107.6c0.69,3.273,3.308,5.794,6.605,6.358l15.7,2.515l-11.667-44.231l0,0l-11.907,15.577
		c-1.443,1.888-1.991,4.312-1.501,6.637L150.177,107.6z"/>
	<path style="fill:#D17461;" d="M137.149,182.745l20.305-12.449c2.226-1.365,3.259-4.054,2.519-6.557l-4.15-14.04
		c-0.537-1.818-1.933-3.256-3.733-3.848l-21.264-6.989L137.149,182.745z"/>
	<path style="fill:#D17461;" d="M246.253,246.534l6.109-20.509l0.086-0.193c-10.553-1.579-20.531-5.172-29.459-10.45l-0.348,0.36
		l-4.701,20.49c-0.594,2.587,0.755,5.227,3.199,6.263l17.732,7.517C241.876,251.284,245.321,249.662,246.253,246.534z"/>
	<path style="fill:#D17461;" d="M174.104,217.285l13.703,4.187c2.486,0.76,5.185-0.043,6.852-2.039l12.77-15.29l0.29-0.412
		c-7.735-7.48-14.025-16.519-18.365-26.714l-0.195,0.051l-23.261,15.911c-2.674,1.829-3.581,5.355-2.123,8.247l6.446,12.785
		C171.014,215.587,172.417,216.77,174.104,217.285z"/>
	<path style="fill:#D17461;" d="M372.171,265.487l-5.914,19.853c-0.558,1.874-2.621,2.845-4.421,2.083l-21.686-9.192
		c-1.464-0.62-2.271-2.202-1.916-3.751l4.295-18.724c0.436-1.901,2.425-3.003,4.267-2.365l23.304,8.064
		C371.76,262.027,372.672,263.805,372.171,265.487z"/>
	<path style="fill:#D17461;" d="M183.128,243.028h11.98c2.425,0,4.618,1.441,5.581,3.667l6.382,14.759
		c1.065,2.462,0.39,5.331-1.66,7.06l-11.607,9.794c-2.493,2.103-6.202,1.865-8.405-0.54l-11.397-12.444
		c-1.556-1.699-2.018-4.132-1.193-6.283l4.642-12.108C178.352,244.58,180.61,243.028,183.128,243.028z"/>
	<path style="fill:#D17461;" d="M269.051,262.55h12.74c2.199,0,4.189,1.307,5.062,3.326l6.696,15.486
		c0.966,2.233,0.354,4.835-1.505,6.404l-12.343,10.415c-2.261,1.908-5.625,1.692-7.623-0.49l-12-13.103
		c-1.411-1.541-1.83-3.748-1.082-5.699l4.907-12.798C264.72,263.958,266.768,262.55,269.051,262.55z"/>
	<path style="fill:#D17461;" d="M304.142,226.773h16.393l7.37,17.044c0.338,0.781,0.124,1.69-0.526,2.238l-13.369,11.28
		c-0.79,0.667-1.966,0.591-2.665-0.171l-12.487-13.634c-0.493-0.539-0.64-1.31-0.378-1.992L304.142,226.773z"/>
	<circle style="fill:#D17461;" cx="225.7" cy="262.55" r="7.896"/>
	<circle style="fill:#D17461;" cx="236.63" cy="286.06" r="7.896"/>
	<circle style="fill:#D17461;" cx="273.66" cy="245.14" r="7.896"/>
	<circle style="fill:#D17461;" cx="343.69" cy="240.7" r="7.896"/>
	<circle style="fill:#D17461;" cx="377.85" cy="297.5" r="7.896"/>
	<circle style="fill:#D17461;" cx="160.21" cy="231.26" r="7.896"/>
	<circle style="fill:#D17461;" cx="315.82" cy="278.17" r="7.896"/>
	<circle style="fill:#D17461;" cx="358.08" cy="325.28" r="7.896"/>
	<circle style="fill:#D17461;" cx="369.95" cy="246.76" r="7.896"/>
	<circle style="fill:#D17461;" cx="335.96" cy="297.5" r="7.896"/>
	<circle style="fill:#D17461;" cx="301.9" cy="309.49" r="7.896"/>
	<circle style="fill:#D17461;" cx="246.33" cy="309.49" r="7.896"/>
	<circle style="fill:#D17461;" cx="205.53" cy="299.48" r="7.896"/>
</g>
<path style="fill:#FFEDBB;" d="M336.734,332.093H219.158v-12.538h105.038C331.121,319.555,336.734,325.168,336.734,332.093
	L336.734,332.093z"/>
<g>
</g>
<g>
</g>
<g>
</g>
<g>
</g>
<g>
</g>
<g>
</g>
<g>
</g>
<g>
</g>
<g>
</g>
<g>
</g>
<g>
</g>
<g>
</g>
<g>
</g>
<g>
</g>
<g>
</g>
</svg>
