<?xml version="1.0" encoding="iso-8859-1"?>
<!-- Generator: Adobe Illustrator 19.0.0, SVG Export Plug-In . SVG Version: 6.00 Build 0)  -->
<svg version="1.1" id="Layer_1" xmlns="http://www.w3.org/2000/svg" xmlns:xlink="http://www.w3.org/1999/xlink" x="0px" y="0px"
	 viewBox="0 0 512.001 512.001" style="enable-background:new 0 0 512.001 512.001;" xml:space="preserve">
<path style="fill:#56555B;" d="M473.543,166.429c-17.48-21.845-43.639-33.793-77.754-35.513
	c-38.403-1.937-65.349-2.185-85.024-2.368c-25.092-0.233-37.685-0.35-45.883-3.62c-7.652-3.054-13.09-9.668-25.005-24.157
	c-3.216-3.912-6.862-8.345-11.094-13.355c-13.837-16.385-23.612-30.614-32.236-43.165C175.525,13.654,161.639-6.563,121.17,1.96
	C68.959,12.953,33.12,75.726,31.62,78.393c-0.989,1.759-1.316,3.815-0.919,5.792l4.114,20.571
	c-8.494,7.024-24.561,24.316-22.331,53.314c0.65,8.466,4.536,15.871,11.236,21.411c11.448,9.466,29.579,12.391,44.298,13.028
	c-4.012,22.738-14.293,85.224-10.879,110.387c3.672,27.06,6.603,145.968,23.527,200.664h36.999c0.289,1.106,0.488,1.857,0.573,2.175
	c0.986,3.694,4.333,6.265,8.155,6.265h75.087c4.52,0,8.236-3.561,8.432-8.077c1.152-26.712-14.713-40.678-28.358-46.557
	c9.736-24.809,14.61-63.599,18.621-95.515c2.53-20.136,4.92-39.154,7.675-46.501c1.367-3.646,1.959-8.466,1.973-14.051
	c13.362,13.648,33.465,27.469,60.086,27.469c1.968,0,3.976-0.075,6.015-0.233c22.691-1.745,42.067-5.984,56.764-10.235l8.333,36.649
	c-0.71-2.695-1.415-5.438-2.101-8.172l11.283,48.558v53.215c0,0-19.792,33.646-19.792,55.01h19.795h16.626
	c0.063,0.463,0.118,0.924,0.197,1.391c0.68,4.068,4.2,7.049,8.324,7.049h93.495c4.13,0,7.653-2.988,8.326-7.061
	c1.497-9.045,14.426-89.113,7.711-114.634c-0.828-3.651,1.907-19.525,4.322-33.529C498.263,304.227,513.427,216.274,473.543,166.429
	z"/>
<g>
	<path style="fill:#3B3B3F;" d="M201.48,512c4.52,0,8.236-3.561,8.432-8.076c1.152-26.712-14.713-40.678-28.358-46.557
		c9.736-24.809,14.61-63.599,18.621-95.515c2.53-20.136,4.92-39.154,7.675-46.501c0.724-1.93,1.224-4.198,1.543-6.726
		c0.033-2.585,0.167-5.037,0.43-7.325c0.397-28.471-19.676-68.829-20.448-64.413c-3.813,21.8-22.859,190.204-41.976,225.708
		c0,0,35.409,7.611,31.306,49.405H201.48z"/>
	<path style="fill:#3B3B3F;" d="M468.845,512c4.13,0,7.653-2.988,8.326-7.061c1.497-9.045,14.426-89.113,7.711-114.634
		c-0.828-3.651,1.907-19.525,4.322-33.529c9.06-52.548,24.223-140.501-15.661-190.345c-17.48-21.845-43.639-33.793-77.754-35.513
		c-20.361-1.026-37.501-1.579-52.043-1.898c9.269,3.101,22.877,6.923,42.892,11.574c0.936,0.217,1.895,0.402,2.841,0.565
		c131.127,22.552,58.518,227.682,64.728,251.276c5.181,19.688-4.738,91.83-8.859,119.568h23.496V512z"/>
</g>
<path style="fill:#2A2A2C;" d="M124.206,90.973c-0.679,0-1.366-0.082-2.053-0.254c-4.523-1.131-7.272-5.712-6.142-10.235
	c0.045-0.18,0.08-0.343,0.109-0.487c-1.943-0.366-5.68-0.143-8.065,0.419c-4.528,1.067-9.079-1.745-10.149-6.283
	c-1.067-4.537,1.745-9.08,6.283-10.149c3.891-0.915,17.165-3.314,24.614,4.24c2.286,2.318,5.791,7.524,3.585,16.352
	C131.43,88.412,127.987,90.972,124.206,90.973z"/>
<path d="M71.059,114.468c-5.487,0-9.951-4.455-9.951-9.931c0-5.477,4.464-9.932,9.951-9.932c5.487,0,9.951,4.455,9.951,9.932
	C81.01,110.012,76.546,114.468,71.059,114.468z"/>
<g>
	<path style="fill:#2A2A2C;" d="M406.376,457.881l-3.873-80.059c-0.097-2.006-0.907-3.913-2.283-5.377
		c-13.513-14.356-24.152-37.596-30.966-67.469l-9.009,3.51c-2.921,1.293-7.927,3.376-14.732,5.74l-1.769,0.689l-0.078-0.055
		c-5.515,1.866-12.091,3.872-19.599,5.78c3.738,16.748,11.861,51.486,17.696,64.59v61.083c-4.446,7.937-19.792,36.811-19.792,57.249
		c0,4.662,3.779,8.44,8.44,8.44h44.939c2.481,0,4.838-1.093,6.441-2.986c1.604-1.895,2.292-4.398,1.884-6.845
		c-3.548-21.234,18.78-36.739,19.006-36.893h-0.001C405.117,463.625,406.519,460.822,406.376,457.881z"/>
	<path style="fill:#2A2A2C;" d="M107.224,321.968L107.224,321.968c2.755-16.536-0.084-40.809-3.091-66.506
		c-2.388-20.409-4.834-41.395-4.96-60.712c-15.329-1.206-28.694-2.184-39.631-2.837c-4.271,24.137-14.316,85.949-10.764,112.119
		c0.962,7.097,1.898,21.141,3.081,38.921c3.244,48.736,8.147,122.384,20.745,163.101c1.094,3.536,4.363,5.945,8.063,5.945h45.728
		c2.622,0,5.094-1.219,6.692-3.298c1.598-2.08,2.137-4.783,1.463-7.317C134.197,500.065,99.423,368.768,107.224,321.968z"/>
</g>
<g>
</g>
<g>
</g>
<g>
</g>
<g>
</g>
<g>
</g>
<g>
</g>
<g>
</g>
<g>
</g>
<g>
</g>
<g>
</g>
<g>
</g>
<g>
</g>
<g>
</g>
<g>
</g>
<g>
</g>
</svg>
