<?xml version="1.0" encoding="iso-8859-1"?>
<!-- Generator: Adobe Illustrator 19.0.0, SVG Export Plug-In . SVG Version: 6.00 Build 0)  -->
<svg version="1.1" id="Layer_1" xmlns="http://www.w3.org/2000/svg" xmlns:xlink="http://www.w3.org/1999/xlink" x="0px" y="0px"
	 viewBox="0 0 511.999 511.999" style="enable-background:new 0 0 511.999 511.999;" xml:space="preserve">
<path style="fill:#8A8990;" d="M505.468,315.138c-4.799-30.83-18.33-63.676-41.367-100.417
	c-39.313-62.7-134.668-98.894-168.006-109.974c3.247-6.937,4.668-13.561,5.267-18.385c4.277-34.437-17.402-73.589-43.764-79.043
	c-34.583-7.156-60.533,16.204-70.475,27.098c-29.117-8.532-67.349-8.302-81.511-7.866C94.618,10.789,70.368-9.134,38.907,4.593
	C25.69,10.363,14.79,26.096,9.006,47.76c-5.459,20.446-5.134,42.48,0.868,58.943c4.367,11.977,17.953,36.969,54.073,32.181
	c-0.033,0.283-0.068,0.561-0.103,0.848c-2.898,24.431,14.195,43.891,31.014,56.836c2.066,6.857,7.705,23.775,18.01,42.464
	c2.151,3.902,4.385,7.65,6.695,11.248L80.216,396.493c-4.105,2.83-12.055,8.434-20.893,15.33
	c-10.776,8.408-15.73,21.955-12.927,35.351c2.81,13.434,12.811,23.889,26.1,27.285c2.968,0.759,5.957,1.125,8.91,1.125
	c12.104-0.001,23.566-6.172,30.203-16.835l30.144-48.425l40.862-49.096l-13.368,47.745l-42.054,48.54
	c-0.387,0.446-0.73,0.928-1.025,1.438c-0.958,1.661-9.238,16.654-4.721,31.322c2.383,7.741,7.929,13.904,16.039,17.823
	c5.481,2.649,11.284,3.902,17.016,3.902c14.855-0.001,29.222-8.423,36.183-22.81c6.643-13.727,13.673-23.528,19.792-27.596
	c5.768-3.833,10.496-7.765,14.459-12.016c1.527-1.64,3.206-3.445,4.998-5.376h25.225c11.247,0,21.849-4.35,29.858-12.245
	l16.511-16.283c1.87,6.602,4.283,12.106,6.751,16.523c-3.533,0.604-7.419,1.396-11.459,2.431
	c-21.213,5.436-35.871,14.663-43.564,27.421c-3.061,5.074-5.648,9.977-7.688,14.571c-3.453,7.777-2.737,16.692,1.916,23.85
	c4.69,7.215,12.622,11.523,21.218,11.523h24.535c19.116,0,37.493-8.846,50.415-24.273c8.328-9.939,22.88-24.014,45.312-35.32
	c34.413-0.63,66.859-15.901,89.309-42.116C500.862,383.907,510.773,349.228,505.468,315.138z"/>
<path style="fill:#2A2A2C;" d="M285.016,431.956l16.511-16.283c-6.92-35.654,4.702-72.209,4.702-72.209l-76.295,100.739h25.225
	C266.405,444.203,277.009,439.853,285.016,431.956z"/>
<path style="fill:#666568;" d="M478.273,410.282c22.588-26.375,32.499-61.054,27.194-95.144
	c-4.799-30.83-18.33-63.676-41.367-100.417c-39.313-62.7-134.668-98.894-168.006-109.974c3.247-6.937,4.668-13.561,5.267-18.385
	c4.277-34.437-17.402-73.589-43.764-79.043c-16.074-3.326-30.279-0.056-41.882,5.487c0.702,0.188,1.417,0.376,2.149,0.564
	c26.856,6.928,47.269,29.436,50.2,57.016c1.48,13.929-1.51,28.129-10.88,39.645l0.011,0.002c0,0,128.624,36.791,174.287,109.619
	c19.298,30.779,34.933,63.983,40.059,96.913c10.374,66.649-42.095,126.568-109.546,126.568
	c-24.155,11.781-40.203,26.674-50.212,38.623c-11.067,13.21-26.684,20.912-43.184,20.948c0.035,0,0.069,0.004,0.105,0.004
	l-19.685-0.142c4.782,5.939,11.961,9.425,19.685,9.425h24.535c19.116,0,37.493-8.846,50.415-24.273
	c8.328-9.939,22.88-24.014,45.312-35.32C423.378,451.768,455.824,436.497,478.273,410.282z"/>
<path style="fill:#2A2A2C;" d="M142.525,94.536l-1.619-0.272c-6.345-1.062-12.731,0.416-17.991,4.165
	c-5.259,3.749-8.741,9.307-9.803,15.649l-4.332,25.843c-1.063,6.342,0.415,12.732,4.164,17.991
	c3.749,5.259,9.307,8.741,15.652,9.805l1.618,0.271c1.344,0.225,2.681,0.334,4.001,0.334c11.57-0.001,21.816-8.367,23.793-20.147
	l4.332-25.843C164.537,109.204,155.649,96.736,142.525,94.536z"/>
<g>
	<path style="fill:#FF7E90;" d="M221.701,135.593c-0.03-3.432-0.397-5.424-0.397-5.424
		C220.982,131.994,221.146,133.802,221.701,135.593z"/>
	<path style="fill:#FF7E90;" d="M200.541,76.542c0,0,26.533,20.875,20.763,53.627c69.951,3.016,79.242-44.131,66.43-78.772l0,0
		C287.732,51.399,236.356,28.566,200.541,76.542z"/>
</g>
<path style="fill:#FF5468;" d="M287.732,51.399c0,0-11.66-5.176-27.739-5.417c14.594,41.94,6.97,76.256-38.53,83.095
	c-0.057,0.365-0.097,0.724-0.161,1.093C291.255,133.186,300.544,86.039,287.732,51.399z"/>
<path style="fill:#C1C1C1;" d="M153.501,276.131c0,0-25.279,90.868-49.773,177.713l-7.05,18.285
	c5.997-2.861,11.219-7.416,14.931-13.378l30.144-48.425l40.862-49.096l13.54-30.456
	C192.261,314.709,181.274,283.684,153.501,276.131z M195.252,331.622l0.022,0.072l-0.996,1.042L195.252,331.622z"/>
<path style="fill:#D9D9DB;" d="M186.626,305.194c-77.914-23.746-91.767-108.626-91.767-108.626s40.7,22.043,92.694,0.51
	C187.553,197.077,171.967,258.611,186.626,305.194"/>
<path style="fill:#FF7E90;" d="M74.072,127.272l2.078-0.687c14.424-69.07,6.382-71.766,6.382-71.766
	c-20.078-32.027-59.34-19.296-59.34-19.296C5.288,74.507,11.189,145.305,74.072,127.272z"/>
<path style="fill:#FF5468;" d="M82.531,54.818C66.948,29.962,39.819,32.065,28.45,34.253c10.362,2.203,21.354,7.85,29.326,20.565
	c0,0,8.042,2.696-6.382,71.766l-0.98,3.307c6.777,0.72,14.627-0.028,23.658-2.619l2.078-0.687
	C90.573,57.514,82.531,54.818,82.531,54.818z"/>
<path style="fill:#D9D9DB;" d="M300.224,253.926c-1.518,18.313-7.375,39.655-11.078,62.922c-3.233,20.313-21.063,59.205-33.648,93.6
	c19.524-23.709,44.057-57.209,50.732-66.985C319.952,323.367,324.703,295.069,300.224,253.926z"/>
<g>
	<path style="fill:#2B2B2B;" d="M177.613,120.324c-5.888,0-10.678-4.783-10.678-10.661c0-5.879,4.79-10.661,10.678-10.661
		c5.889,0,10.68,4.783,10.68,10.661S183.503,120.324,177.613,120.324z"/>
	<path style="fill:#2B2B2B;" d="M103.366,108.429c-5.888,0-10.678-4.783-10.678-10.661s4.79-10.661,10.678-10.661
		c5.889,0,10.68,4.783,10.68,10.661C114.046,103.647,109.255,108.429,103.366,108.429z"/>
</g>
<g>
</g>
<g>
</g>
<g>
</g>
<g>
</g>
<g>
</g>
<g>
</g>
<g>
</g>
<g>
</g>
<g>
</g>
<g>
</g>
<g>
</g>
<g>
</g>
<g>
</g>
<g>
</g>
<g>
</g>
</svg>
