<svg
version="1.1"
xmlns="http://www.w3.org/2000/svg"
xmlns:xlink="http://www.w3.org/1999/xlink"
width="40"
height="45"
viewBox="0 0 102 102"
xml:space="preserve"
style="fill: green;"
>
<path
fill="#F90"
d="M58.7 85.9H8.5c-4.1 0-7.5-3.4-7.5-7.5v-1.1c0-4.1 3.4-7.5 7.5-7.5h50.2c4.1 0 7.5 3.4 7.5 7.5v1.1c0 4.1-3.4 7.5-7.5 7.5zM8.5 74.3a3 3 0 0 0-3 3v1.1a3 3 0 0 0 3 3h50.2a3 3 0 0 0 3-3v-1.1a3 3 0 0 0-3-3H8.5zM54.8 99H12.4c-3.7 0-6.8-3-6.8-6.8v-4c0-1.2 1-2.2 2.2-2.2s2.2 1 2.2 2.2v4c0 1.3 1.1 2.3 2.4 2.3h42.4c1.3 0 2.3-1.1 2.3-2.3v-4c0-1.2 1-2.2 2.2-2.2s2.2 1 2.2 2.2v4c.1 3.8-3 6.8-6.7 6.8zm42-57.9c-1.2 0-2.2-1-2.2-2.2v-2.8c0-.6-.5-1-1-1h-54a1 1 0 0 0-1 1v2.8c0 1.2-1 2.2-2.2 2.2-1.2 0-2.2-1-2.2-2.2v-2.8c0-3 2.5-5.5 5.5-5.5h54c3 0 5.5 2.4 5.5 5.5v2.8c-.2 1.2-1.2 2.2-2.4 2.2z"
></path>
<path
fill="#F90"
d="M63.9 31.4c-1 0-1.9-.7-2.2-1.7L56.6 6.2c-.1-.4-.3-.5-.4-.6-.1-.1-.4-.2-.8-.1L41 8.6c-1.2.3-2.4-.5-2.6-1.7-.3-1.2.5-2.4 1.7-2.6l14.4-3.1c1.4-.3 2.9 0 4.1.7 1.2.8 2.1 2 2.4 3.4l5.1 23.5c.3 1.2-.5 2.4-1.7 2.6h-.5zm-3.7 38.7c-.8 0-1.5-.4-1.9-1.1-3.9-6.7-12.4-14.5-23.8-14.5s-20 7.8-23.8 14.5c-.6 1.1-2 1.4-3 .8-1.1-.6-1.4-2-.8-3 5.9-10.1 16.7-16.7 27.7-16.7s21.8 6.5 27.7 16.7c.6 1.1.3 2.4-.8 3-.5.2-.9.3-1.3.3z"
></path>
<ellipse fill="#F90" cx="24.3" cy="63.9" rx="1.7" ry="1.7"></ellipse>
<ellipse fill="#F90" cx="40.7" cy="65.6" rx="1.7" ry="1.7"></ellipse>
<ellipse fill="#F90" cx="33.6" cy="58.8" rx="1.7" ry="1.7"></ellipse>
<path
fill="#F90"
d="M47 49.6c-1.2 0-2.2-.9-2.2-2.1l-.5-10.3c-.1-1.2.9-2.3 2.1-2.3 1.3-.1 2.3.9 2.3 2.1l.5 10.3c.1 1.2-.9 2.3-2.1 2.3H47zM82.1 93H71.4c-1.2 0-2.2-1-2.2-2.2s1-2.2 2.2-2.2h10.7c.6 0 1-.5 1-1L85.5 37a2.3 2.3 0 0 1 2.3-2.1c1.2.1 2.2 1.1 2.1 2.3l-2.4 50.5c.1 2.9-2.4 5.3-5.4 5.3z"
></path>
</svg>