<svg
version="1.1"
xmlns="http://www.w3.org/2000/svg"
xmlns:xlink="http://www.w3.org/1999/xlink"
width="40"
height="45"
viewBox="0 0 130 45"
xml:space="preserve"
style="fill: green;"
>
<path
d="M73.5 95.2H26.8c-1.3 0-2.3-1-2.3-2.3V7.6c0-1.3 1-2.3 2.3-2.3h46.7c1.3 0 2.3 1 2.3 2.3V93c0 1.2-1.1 2.2-2.3 2.2zM26.8 6.4c-.6 0-1.1.5-1.1 1.1v85.4c0 .6.5 1.1 1.1 1.1h46.7c.6 0 1.1-.5 1.1-1.1V7.6c0-.6-.5-1.1-1.1-1.1l-46.7-.1z"
></path>
<path
d="M68.8 78.9H31.3c-.6 0-1.2-.5-1.2-1.2V16c0-.6.5-1.2 1.2-1.2h37.5c.6 0 1.2.5 1.2 1.2v61.7c0 .6-.5 1.2-1.2 1.2zm0-62.9H31.3v61.6h37.4l.1-61.6zm-19 74.4c-2.3 0-4.1-1.9-4.1-4.1 0-2.3 1.9-4.1 4.1-4.1 2.3 0 4.1 1.9 4.1 4.1a4 4 0 0 1-4.1 4.1zm0-7.1a2.9 2.9 0 1 0 2.9 2.9c.1-1.5-1.2-2.9-2.9-2.9zm-5.5-72.1h-1.6c-.3 0-.6-.3-.6-.6s.3-.6.6-.6h1.6c.3 0 .6.3.6.6s-.3.6-.6.6zm11 0h-6.5c-.3 0-.6-.3-.6-.6s.3-.6.6-.6h6.5c.3 0 .6.3.6.6s-.2.6-.6.6z"
></path>
</svg>